<svg xmlns="http://www.w3.org/2000/svg" viewBox="0 0 780 470" font-family="sans-serif">
  <defs>
    <marker id="bmArrR" markerWidth="10" markerHeight="7" refX="10" refY="3.5" orient="auto" fill="#8B0029">
      <polygon points="0 0, 10 3.5, 0 7"/>
    </marker>
    <marker id="bmArrG" markerWidth="10" markerHeight="7" refX="10" refY="3.5" orient="auto" fill="#6B7280">
      <polygon points="0 0, 10 3.5, 0 7"/>
    </marker>
  </defs>

  <text x="390" y="34" text-anchor="middle" font-size="18" font-weight="bold" fill="#8B0029">압력 측정: 수은 기압계와 개방형 마노미터</text>

  <text x="205" y="70" text-anchor="middle" font-size="15" font-weight="bold" fill="#8B0029">수은 기압계</text>
  <rect x="88" y="385" width="235" height="34" rx="4" fill="#F3F4F6" stroke="#6B7280" stroke-width="2"/>
  <rect x="98" y="397" width="215" height="12" fill="#6B7280" opacity="0.45"/>
  <path d="M 188,386 L 188,110 Q 188,90 208,90 Q 228,90 228,110 L 228,386" fill="white" stroke="#6B7280" stroke-width="2"/>
  <rect x="191" y="142" width="34" height="244" fill="#6B7280" opacity="0.55"/>
  <rect x="194" y="94" width="28" height="48" fill="white"/>
  <text x="208" y="123" text-anchor="middle" font-size="13" fill="#6B7280">진공</text>
  <line x1="250" y1="142" x2="250" y2="386" stroke="#6B7280" stroke-width="1" stroke-dasharray="4 3"/>
  <line x1="242" y1="142" x2="258" y2="142" stroke="#6B7280" stroke-width="1"/>
  <line x1="242" y1="386" x2="258" y2="386" stroke="#6B7280" stroke-width="1"/>
  <line x1="250" y1="155" x2="250" y2="373" stroke="#6B7280" stroke-width="1" marker-end="url(#bmArrG)"/>
  <text x="264" y="270" font-size="15" fill="#6B7280" font-style="italic">h</text>
  <line x1="125" y1="365" x2="180" y2="365" stroke="#8B0029" stroke-width="2.5" marker-end="url(#bmArrR)"/>
  <text x="112" y="359" text-anchor="end" font-size="14" fill="#8B0029" font-style="italic">p₀</text>
  <text x="205" y="445" text-anchor="middle" font-size="15" fill="#8B0029" font-weight="bold">p₀ = ρHggh</text>

  <line x1="390" y1="72" x2="390" y2="430" stroke="#D1D5DB" stroke-width="1"/>

  <text x="585" y="70" text-anchor="middle" font-size="15" font-weight="bold" fill="#8B0029">개방형 마노미터</text>
  <path d="M 485,150 L 485,355 Q 485,388 518,388 L 650,388 Q 683,388 683,355 L 683,122" fill="none" stroke="#6B7280" stroke-width="16" stroke-linecap="round"/>
  <path d="M 485,245 L 485,355 Q 485,388 518,388 L 650,388 Q 683,388 683,355 L 683,205" fill="none" stroke="#2563EB" stroke-width="12" stroke-linecap="round" opacity="0.55"/>
  <rect x="430" y="116" width="78" height="68" rx="8" fill="#F3F4F6" stroke="#6B7280" stroke-width="2"/>
  <line x1="508" y1="150" x2="477" y2="150" stroke="#6B7280" stroke-width="10" stroke-linecap="round"/>
  <text x="469" y="156" text-anchor="middle" font-size="14" fill="#8B0029" font-style="italic">p</text>
  <text x="684" y="103" text-anchor="middle" font-size="14" fill="#2563EB">대기 개방</text>
  <line x1="683" y1="103" x2="683" y2="132" stroke="#2563EB" stroke-width="2.5" marker-end="url(#bmArrR)"/>
  <text x="712" y="158" font-size="14" fill="#8B0029" font-style="italic">p₀</text>

  <line x1="615" y1="205" x2="735" y2="205" stroke="#6B7280" stroke-width="1" stroke-dasharray="4 3"/>
  <line x1="615" y1="245" x2="735" y2="245" stroke="#6B7280" stroke-width="1" stroke-dasharray="4 3"/>
  <line x1="725" y1="205" x2="725" y2="245" stroke="#6B7280" stroke-width="1"/>
  <line x1="718" y1="205" x2="732" y2="205" stroke="#6B7280" stroke-width="1"/>
  <line x1="718" y1="245" x2="732" y2="245" stroke="#6B7280" stroke-width="1"/>
  <text x="738" y="230" font-size="15" fill="#6B7280" font-style="italic">h</text>

  <rect x="454" y="420" width="262" height="32" rx="6" fill="#F3F4F6" stroke="#8B0029" stroke-width="1.5"/>
  <text x="585" y="441" text-anchor="middle" font-size="15" fill="#8B0029" font-weight="bold">p - p₀ = ρgh</text>
</svg>
