<svg xmlns="http://www.w3.org/2000/svg" viewBox="0 0 780 500" font-family="sans-serif">
  <defs>
    <marker id="btNewBlue" markerWidth="10" markerHeight="7" refX="10" refY="3.5" orient="auto" fill="#2563EB">
      <polygon points="0 0, 10 3.5, 0 7"/>
    </marker>
    <marker id="btNewRed" markerWidth="10" markerHeight="7" refX="10" refY="3.5" orient="auto" fill="#8B0029">
      <polygon points="0 0, 10 3.5, 0 7"/>
    </marker>
    <marker id="btNewGray" markerWidth="10" markerHeight="7" refX="10" refY="3.5" orient="auto" fill="#6B7280">
      <polygon points="0 0, 10 3.5, 0 7"/>
    </marker>
    <linearGradient id="btNewFluid" x1="0" y1="0" x2="1" y2="1">
      <stop offset="0%" stop-color="#2563EB" stop-opacity="0.18"/>
      <stop offset="100%" stop-color="#2563EB" stop-opacity="0.34"/>
    </linearGradient>
  </defs>

  <text x="390" y="34" text-anchor="middle" font-size="18" font-weight="bold" fill="#8B0029">베르누이 방정식 유도: 이동하는 유체 요소</text>

  <line x1="55" y1="425" x2="735" y2="425" stroke="#6B7280" stroke-width="1" stroke-dasharray="4 3"/>
  <text x="742" y="429" font-size="12" fill="#6B7280" font-style="italic">y = 0</text>

  <path d="M 70,292 C 160,292 215,292 270,272 C 340,247 380,187 455,155 C 520,127 570,116 705,116" fill="none" stroke="#6B7280" stroke-width="2"/>
  <path d="M 70,374 C 160,374 215,374 270,350 C 342,318 378,260 455,225 C 520,195 570,176 705,176" fill="none" stroke="#6B7280" stroke-width="2"/>
  <path d="M 70,292 C 160,292 215,292 270,272 C 340,247 380,187 455,155 C 520,127 570,116 705,116 L 705,176 C 570,176 520,195 455,225 C 378,260 342,318 270,350 C 215,374 160,374 70,374 Z" fill="url(#btNewFluid)"/>

  <path d="M 95,318 C 225,318 305,284 400,215 C 500,145 590,140 695,137" fill="none" stroke="#2563EB" stroke-width="1.2" opacity="0.75"/>
  <path d="M 95,350 C 230,350 318,318 410,252 C 505,185 595,162 695,155" fill="none" stroke="#2563EB" stroke-width="1.2" opacity="0.75"/>
  <line x1="105" y1="333" x2="165" y2="333" stroke="#2563EB" stroke-width="2.5" marker-end="url(#btNewBlue)"/>
  <line x1="620" y1="146" x2="705" y2="146" stroke="#2563EB" stroke-width="2.5" marker-end="url(#btNewBlue)"/>

  <rect x="111" y="296" width="64" height="74" rx="6" fill="#8B0029" opacity="0.16" stroke="#8B0029" stroke-width="1.6"/>
  <rect x="594" y="122" width="46" height="50" rx="6" fill="#2563EB" opacity="0.20" stroke="#2563EB" stroke-width="1.6"/>
  <text x="143" y="287" text-anchor="middle" font-size="13" fill="#8B0029" font-weight="bold">ΔV</text>
  <text x="617" y="113" text-anchor="middle" font-size="13" fill="#2563EB" font-weight="bold">ΔV</text>

  <circle cx="143" cy="333" r="5" fill="#8B0029"/>
  <text x="143" y="272" text-anchor="middle" font-size="15" fill="#8B0029" font-weight="bold">1</text>
  <circle cx="617" cy="147" r="5" fill="#2563EB"/>
  <text x="617" y="95" text-anchor="middle" font-size="15" fill="#2563EB" font-weight="bold">2</text>

  <line x1="143" y1="333" x2="143" y2="425" stroke="#6B7280" stroke-width="1" stroke-dasharray="4 3"/>
  <line x1="617" y1="147" x2="617" y2="425" stroke="#6B7280" stroke-width="1" stroke-dasharray="4 3"/>
  <text x="126" y="383" text-anchor="end" font-size="14" fill="#6B7280" font-style="italic">y₁</text>
  <text x="632" y="294" font-size="14" fill="#6B7280" font-style="italic">y₂</text>

  <line x1="61" y1="333" x2="111" y2="333" stroke="#8B0029" stroke-width="2.5" marker-end="url(#btNewRed)"/>
  <text x="58" y="325" text-anchor="end" font-size="14" fill="#8B0029" font-style="italic">p₁A₁</text>
  <line x1="684" y1="147" x2="640" y2="147" stroke="#8B0029" stroke-width="2.5" marker-end="url(#btNewRed)"/>
  <text x="690" y="142" font-size="14" fill="#8B0029" font-style="italic">p₂A₂</text>

  <line x1="225" y1="333" x2="225" y2="390" stroke="#6B7280" stroke-width="2" marker-end="url(#btNewGray)"/>
  <text x="238" y="366" font-size="13" fill="#6B7280" font-style="italic">mg</text>

  <line x1="108" y1="382" x2="178" y2="382" stroke="#8B0029" stroke-width="1"/>
  <text x="143" y="402" text-anchor="middle" font-size="14" fill="#8B0029" font-style="italic">A₁</text>
  <line x1="590" y1="186" x2="644" y2="186" stroke="#2563EB" stroke-width="1"/>
  <text x="617" y="207" text-anchor="middle" font-size="14" fill="#2563EB" font-style="italic">A₂</text>

  <rect x="105" y="447" width="570" height="34" rx="6" fill="#F3F4F6" stroke="#8B0029" stroke-width="1.2"/>
  <text x="390" y="469" text-anchor="middle" font-size="15" fill="#8B0029" font-weight="bold">압력일 + 중력일 = 유체 요소의 운동에너지 변화</text>
</svg>
